<svg width="27" height="27" viewBox="0 0 27 27" fill="none" xmlns="http://www.w3.org/2000/svg">
<path d="M13.5 23.8333C16.2406 23.8333 18.8689 22.7447 20.8068 20.8068C22.7447 18.8689 23.8334 16.2406 23.8334 13.5C23.8334 10.7594 22.7447 8.13112 20.8068 6.19324C18.8689 4.25536 16.2406 3.16668 13.5 3.16668C10.7595 3.16668 8.13115 4.25536 6.19327 6.19324C4.2554 8.13112 3.16671 10.7594 3.16671 13.5C3.16671 16.2406 4.2554 18.8689 6.19327 20.8068C8.13115 22.7447 10.7595 23.8333 13.5 23.8333ZM13.5 0.583344C15.1963 0.583344 16.8759 0.917443 18.443 1.56657C20.0102 2.21569 21.4341 3.16712 22.6335 4.36655C23.8329 5.56597 24.7844 6.98989 25.4335 8.55702C26.0826 10.1241 26.4167 11.8038 26.4167 13.5C26.4167 16.9257 25.0558 20.2111 22.6335 22.6335C20.2112 25.0558 16.9258 26.4167 13.5 26.4167C6.35712 26.4167 0.583374 20.6042 0.583374 13.5C0.583374 10.0743 1.94423 6.78889 4.36658 4.36655C6.78892 1.9442 10.0743 0.583344 13.5 0.583344ZM14.1459 7.04168V13.8229L19.9584 17.2717L18.9896 18.8604L12.2084 14.7917V7.04168H14.1459Z" fill="black"/>
</svg>
