<svg width="59" height="59" viewBox="0 0 59 59" fill="none" xmlns="http://www.w3.org/2000/svg">
<path d="M7.375 12.9062V42.4062C7.375 43.3842 7.7635 44.3222 8.45504 45.0137C9.14658 45.7052 10.0845 46.0938 11.0625 46.0938H47.9375C48.9155 46.0938 49.8534 45.7052 50.545 45.0137C51.2365 44.3222 51.625 43.3842 51.625 42.4062V12.9062H7.375ZM7.375 9.21875H51.625C52.603 9.21875 53.5409 9.60725 54.2325 10.2988C54.924 10.9903 55.3125 11.9283 55.3125 12.9062V42.4062C55.3125 44.3622 54.5355 46.2381 53.1524 47.6212C51.7693 49.0042 49.8935 49.7812 47.9375 49.7812H11.0625C9.10653 49.7812 7.23067 49.0042 5.84759 47.6212C4.46451 46.2381 3.6875 44.3622 3.6875 42.4062V12.9062C3.6875 11.9283 4.076 10.9903 4.76754 10.2988C5.45908 9.60725 6.39701 9.21875 7.375 9.21875Z" fill="black"/>
<path d="M52.0859 12.9062L37.8264 29.205C36.7881 30.392 35.5079 31.3432 34.0719 31.995C32.6358 32.6468 31.077 32.9839 29.5 32.9839C27.923 32.9839 26.3642 32.6468 24.9281 31.995C23.4921 31.3432 22.2119 30.392 21.1736 29.205L6.91406 12.9062H52.0859ZM11.8147 12.9062L23.9466 26.7749C24.6388 27.5665 25.4923 28.2008 26.4498 28.6354C27.4073 29.0701 28.4466 29.2949 29.4982 29.2949C30.5497 29.2949 31.589 29.0701 32.5465 28.6354C33.504 28.2008 34.3575 27.5665 35.0497 26.7749L47.1852 12.9062H11.8147Z" fill="black"/>
</svg>
