<svg width="28" height="28" viewBox="0 0 28 28" fill="none" xmlns="http://www.w3.org/2000/svg">
<path d="M15.3333 10H12.6666V7.33334H15.3333M15.3333 20.6667H12.6666V12.6667H15.3333M14 0.666672C12.249 0.666672 10.5152 1.01155 8.89751 1.68161C7.27984 2.35167 5.80998 3.3338 4.57187 4.57191C2.07138 7.0724 0.666626 10.4638 0.666626 14C0.666626 17.5362 2.07138 20.9276 4.57187 23.4281C5.80998 24.6662 7.27984 25.6483 8.89751 26.3184C10.5152 26.9885 12.249 27.3333 14 27.3333C17.5362 27.3333 20.9276 25.9286 23.4281 23.4281C25.9285 20.9276 27.3333 17.5362 27.3333 14C27.3333 12.249 26.9884 10.5152 26.3184 8.89756C25.6483 7.27988 24.6662 5.81003 23.4281 4.57191C22.1899 3.3338 20.7201 2.35167 19.1024 1.68161C17.4847 1.01155 15.7509 0.666672 14 0.666672Z" fill="black"/>
</svg>
