<svg width="20" height="30" viewBox="0 0 20 30" fill="none" xmlns="http://www.w3.org/2000/svg">
<path d="M10 14.2917C9.06073 14.2917 8.1599 13.9185 7.4957 13.2543C6.83151 12.5902 6.45837 11.6893 6.45837 10.75C6.45837 9.8107 6.83151 8.90987 7.4957 8.24567C8.1599 7.58148 9.06073 7.20834 10 7.20834C10.9393 7.20834 11.8402 7.58148 12.5044 8.24567C13.1686 8.90987 13.5417 9.8107 13.5417 10.75C13.5417 11.2151 13.4501 11.6757 13.2721 12.1053C13.0941 12.535 12.8333 12.9255 12.5044 13.2543C12.1755 13.5832 11.7851 13.8441 11.3554 14.0221C10.9257 14.2001 10.4651 14.2917 10 14.2917ZM10 0.833344C7.36998 0.833344 4.84763 1.87813 2.9879 3.73787C1.12816 5.5976 0.083374 8.11995 0.083374 10.75C0.083374 18.1875 10 29.1667 10 29.1667C10 29.1667 19.9167 18.1875 19.9167 10.75C19.9167 8.11995 18.8719 5.5976 17.0122 3.73787C15.1524 1.87813 12.6301 0.833344 10 0.833344Z" fill="black"/>
</svg>
