<svg width="105" height="105" viewBox="0 0 105 105" fill="none" xmlns="http://www.w3.org/2000/svg">
<circle cx="52.5" cy="52.5" r="52.5" fill="#AAAAAA"/>
<path fill-rule="evenodd" clip-rule="evenodd" d="M62 45V59C62 60.1 61.1 61 60 61H46C44.9 61 44 60.1 44 59V45C44 43.9 44.9 43 46 43H60C61.1 43 62 43.9 62 45ZM52 56.51L49.9 53.98C49.69 53.73 49.31 53.74 49.12 54L46.63 57.2C46.37 57.53 46.6 58.01 47.02 58.01H59.01C59.42 58.01 59.66 57.54 59.41 57.21L55.9 52.53C55.7 52.26 55.3 52.26 55.1 52.52L52 56.51Z" fill="#6D7D8B"/>
</svg>
